name Run_200 02_newCOP3_v24.mot
datacolumns 19
datarows 25
range 0.04000000 0.06400000
endheader
                time	   R_ground_force_vx	   R_ground_force_vy	   R_ground_force_vz	   R_ground_force_px	   R_ground_force_py	   R_ground_force_pz	   L_ground_force_vx	   L_ground_force_vy	   L_ground_force_vz	   L_ground_force_px	   L_ground_force_py	   L_ground_force_pz	   R_ground_torque_x	   R_ground_torque_y	   R_ground_torque_z	   L_ground_torque_x	   L_ground_torque_y	   L_ground_torque_z	
          0.04000000	          0.00000000	          0.00000000	          0.00000000	          0.00000000	          0.00000000	          0.00000000	          0.00000000	          0.00000000	          0.00000000	          0.00000000	          0.00000000	          0.00000000	          0.00000000	          0.00000000	          0.00000000	          0.00000000	          0.00000000	          0.00000000	
          0.04100000	          0.00000000	          0.00000000	          0.00000000	          0.00000000	          0.00000000	          0.00000000	          0.67655800	        136.43789700	         -7.73696700	          0.88479400	          0.00000000	         -0.31248600	          0.00000000	          0.00000000	          0.00000000	         -0.00000000	          6.90308500	         -0.00000000	
          0.04200000	          0.00000000	          0.00000000	          0.00000000	          0.00000000	          0.00000000	          0.00000000	          4.34946000	        152.94833400	         -8.46581700	          0.91034900	          0.00000000	         -0.31251800	          0.00000000	          0.00000000	          0.00000000	         -0.00000000	          6.36113900	         -0.00000000	
          0.04300000	          0.00000000	          0.00000000	          0.00000000	          0.00000000	          0.00000000	          0.00000000	          8.02409300	        170.12081900	         -9.24540500	          0.92954800	          0.00000000	         -0.31248100	          0.00000000	          0.00000000	          0.00000000	         -0.00000000	          5.81895400	         -0.00000000	
          0.04400000	          0.00000000	          0.00000000	          0.00000000	          0.00000000	          0.00000000	          0.00000000	         11.65657500	        187.94383200	        -10.08045100	          0.94449700	          0.00000000	         -0.31239800	          0.00000000	          0.00000000	          0.00000000	         -0.00000000	          5.27928000	         -0.00000000	
          0.04500000	          0.00000000	          0.00000000	          0.00000000	          0.00000000	          0.00000000	          0.00000000	         15.20376100	        206.40994300	        -10.97478700	          0.95646900	          0.00000000	         -0.31228300	          0.00000000	          0.00000000	          0.00000000	         -0.00000000	          4.74483800	         -0.00000000	
          0.04600000	          0.00000000	          0.00000000	          0.00000000	          0.00000000	          0.00000000	          0.00000000	         18.62309100	        225.51101700	        -11.93076900	          0.96627500	          0.00000000	         -0.31214700	          0.00000000	          0.00000000	          0.00000000	         -0.00000000	          4.21830200	         -0.00000000	
          0.04700000	          0.00000000	          0.00000000	          0.00000000	          0.00000000	          0.00000000	          0.00000000	         21.87266300	        245.23515300	        -12.94883200	          0.97445800	          0.00000000	         -0.31199300	          0.00000000	          0.00000000	          0.00000000	         -0.00000000	          3.70226600	         -0.00000000	
          0.04800000	          0.00000000	          0.00000000	          0.00000000	          0.00000000	          0.00000000	          0.00000000	         24.91145300	        265.56436200	        -14.02714800	          0.98139400	          0.00000000	         -0.31182800	          0.00000000	          0.00000000	          0.00000000	         -0.00000000	          3.19922100	         -0.00000000	
          0.04900000	          0.00000000	          0.00000000	          0.00000000	          0.00000000	          0.00000000	          0.00000000	         27.69963100	        286.47299200	        -15.16139400	          0.98735300	          0.00000000	         -0.31165400	          0.00000000	          0.00000000	          0.00000000	         -0.00000000	          2.71152800	         -0.00000000	
          0.05000000	          0.00000000	          0.00000000	          0.00000000	          0.00000000	          0.00000000	          0.00000000	         30.19895600	        307.92669700	        -16.34461200	          0.99253100	          0.00000000	         -0.31147300	          0.00000000	          0.00000000	          0.00000000	         -0.00000000	          2.24140200	         -0.00000000	
          0.05100000	          0.00000000	          0.00000000	          0.00000000	          0.00000000	          0.00000000	          0.00000000	         32.37325300	        329.88168300	        -17.56719400	          0.99707700	          0.00000000	         -0.31128800	          0.00000000	          0.00000000	          0.00000000	         -0.00000000	          1.79089000	         -0.00000000	
          0.05200000	          0.00000000	          0.00000000	          0.00000000	          0.00000000	          0.00000000	          0.00000000	         34.18888900	        352.28439300	        -18.81697800	          1.00110300	          0.00000000	         -0.31109900	          0.00000000	          0.00000000	          0.00000000	         -0.00000000	          1.36185600	         -0.00000000	
          0.05300000	          0.00000000	          0.00000000	          0.00000000	          0.00000000	          0.00000000	          0.00000000	         35.61532200	        375.07132000	        -20.07947200	          1.00469700	          0.00000000	         -0.31090900	          0.00000000	          0.00000000	          0.00000000	         -0.00000000	          0.95596600	         -0.00000000	
          0.05400000	          0.00000000	          0.00000000	          0.00000000	          0.00000000	          0.00000000	          0.00000000	         36.62562200	        398.16943400	        -21.33820200	          1.00792900	          0.00000000	         -0.31071700	          0.00000000	          0.00000000	          0.00000000	         -0.00000000	          0.57468100	         -0.00000000	
          0.05500000	          0.00000000	          0.00000000	          0.00000000	          0.00000000	          0.00000000	          0.00000000	         37.19699100	        421.49664300	        -22.57519100	          1.01085300	          0.00000000	         -0.31052600	          0.00000000	          0.00000000	          0.00000000	         -0.00000000	          0.21924500	         -0.00000000	
          0.05600000	          0.00000000	          0.00000000	          0.00000000	          0.00000000	          0.00000000	          0.00000000	         37.31125300	        444.96270800	        -23.77154700	          1.01351300	          0.00000000	         -0.31033500	          0.00000000	          0.00000000	          0.00000000	          0.00000000	         -0.10931700	          0.00000000	
          0.05700000	          0.00000000	          0.00000000	          0.00000000	          0.00000000	          0.00000000	          0.00000000	         36.95525400	        468.47049000	        -24.90815200	          1.01594600	          0.00000000	         -0.31014500	          0.00000000	          0.00000000	          0.00000000	          0.00000000	         -0.41020400	          0.00000000	
          0.05800000	          0.00000000	          0.00000000	          0.00000000	          0.00000000	          0.00000000	          0.00000000	         36.12121200	        491.91723600	        -25.96642300	          1.01818100	          0.00000000	         -0.30995700	          0.00000000	          0.00000000	          0.00000000	          0.00000000	         -0.68283600	          0.00000000	
          0.05900000	          0.00000000	          0.00000000	          0.00000000	          0.00000000	          0.00000000	          0.00000000	         34.80695700	        515.19635000	        -26.92912900	          1.02024200	          0.00000000	         -0.30977200	          0.00000000	          0.00000000	          0.00000000	          0.00000000	         -0.92685400	          0.00000000	
          0.06000000	          0.00000000	          0.00000000	          0.00000000	          0.00000000	          0.00000000	          0.00000000	         33.01602600	        538.19934100	        -27.78120600	          1.02215000	          0.00000000	         -0.30959000	          0.00000000	          0.00000000	          0.00000000	          0.00000000	         -1.14211100	          0.00000000	
          0.06100000	          0.00000000	          0.00000000	          0.00000000	          0.00000000	          0.00000000	          0.00000000	         30.75768500	        560.81762700	        -28.51054200	          1.02392100	          0.00000000	         -0.30941100	          0.00000000	          0.00000000	          0.00000000	          0.00000000	         -1.32867100	          0.00000000	
          0.06200000	          0.00000000	          0.00000000	          0.00000000	          0.00000000	          0.00000000	          0.00000000	         28.04678300	        582.94451900	        -29.10869200	          1.02557000	          0.00000000	         -0.30923700	          0.00000000	          0.00000000	          0.00000000	          0.00000000	         -1.48679400	          0.00000000	
          0.06300000	          0.00000000	          0.00000000	          0.00000000	          0.00000000	          0.00000000	          0.00000000	         24.90350900	        604.47747800	        -29.57147800	          1.02710800	          0.00000000	         -0.30906700	          0.00000000	          0.00000000	          0.00000000	          0.00000000	         -1.61693000	          0.00000000	
          0.06400000	          0.00000000	          0.00000000	          0.00000000	          0.00000000	          0.00000000	          0.00000000	         21.35304300	        625.31982400	        -29.89941600	          1.02854500	          0.00000000	         -0.30890200	          0.00000000	          0.00000000	          0.00000000	          0.00000000	         -1.71970300	          0.00000000	
